<?xml version="1.0" encoding="UTF-8" standalone="no"?>
<!-- Created with Inkscape (http://www.inkscape.org/) -->

<svg
   xmlns:dc="http://purl.org/dc/elements/1.1/"
   xmlns:cc="http://creativecommons.org/ns#"
   xmlns:rdf="http://www.w3.org/1999/02/22-rdf-syntax-ns#"
   xmlns:svg="http://www.w3.org/2000/svg"
   xmlns="http://www.w3.org/2000/svg"
   xmlns:sodipodi="http://sodipodi.sourceforge.net/DTD/sodipodi-0.dtd"
   xmlns:inkscape="http://www.inkscape.org/namespaces/inkscape"
   width="38.59481mm"
   height="23.309641mm"
   viewBox="0 0 38.59481 23.309641"
   version="1.1"
   id="svg8"
   inkscape:version="0.92.3 (2405546, 2018-03-11)"
   sodipodi:docname="logo.svg">
  <defs
     id="defs2" />
  <sodipodi:namedview
     id="base"
     pagecolor="#ffffff"
     bordercolor="#666666"
     borderopacity="1.0"
     inkscape:pageopacity="0.0"
     inkscape:pageshadow="2"
     inkscape:zoom="0.35"
     inkscape:cx="160.07793"
     inkscape:cy="92.621141"
     inkscape:document-units="mm"
     inkscape:current-layer="layer1"
     showgrid="false"
     fit-margin-top="0"
     fit-margin-left="0"
     fit-margin-right="0"
     fit-margin-bottom="0"
     inkscape:window-width="1920"
     inkscape:window-height="1007"
     inkscape:window-x="0"
     inkscape:window-y="0"
     inkscape:window-maximized="1" />
  <metadata
     id="metadata5">
    <rdf:RDF>
      <cc:Work
         rdf:about="">
        <dc:format>image/svg+xml</dc:format>
        <dc:type
           rdf:resource="http://purl.org/dc/dcmitype/StillImage" />
        <dc:title></dc:title>
      </cc:Work>
    </rdf:RDF>
  </metadata>
  <g
     inkscape:label="Layer 1"
     inkscape:groupmode="layer"
     id="layer1"
     transform="translate(77.505738,-150.0297)">
    <g
       id="layer1-6"
       inkscape:label="Layer 1"
       transform="translate(65.011902,187.47619)">
      <path
         inkscape:connector-curvature="0"
         id="path21"
         d="m -125.3644,-14.358086 c -2.27711,-0.46528 -3.98361,-1.33153 -5.63495,-2.86042 -0.63764,-0.59036 -1.40225,-1.43407 -1.69913,-1.87491 l -0.53978,-0.80152 -1.32904,1.42051 c -1.29824,1.38758 -1.33367,1.41165 -1.52827,1.03794 -0.10957,-0.21042 -0.22103,-0.40826 -0.24769,-0.43965 -0.0267,-0.0314 -0.78848,0.35828 -1.69293,0.86591 -0.90446,0.50764 -1.71819,0.92298 -1.8083,0.92298 -0.13468,0 -0.36406,-0.36295 -0.36406,-0.57604 0,-0.0298 0.77603,-0.47914 1.72451,-0.99845 l 1.72451,-0.94419 -0.23203,-0.4487 -0.23204,-0.4487 1.68253,-0.29395 c 0.92538,-0.16168 1.77011,-0.32677 1.87716,-0.36688 0.13893,-0.052 0.0993,-0.29337 -0.1384,-0.84314 -0.43625,-1.0089 -0.96338,-3.06925 -0.96338,-3.76543 0,-0.30299 -0.0596,-0.55089 -0.13253,-0.55089 -0.0729,0 -0.88932,0.25486 -1.81429,0.56636 l -1.68176,0.56636 v -0.48389 -0.48389 h -2.06169 -2.06168 v -0.41234 -0.41234 h 2.06168 2.06169 v -0.48389 -0.48389 l 1.68176,0.56636 c 0.92497,0.31149 1.73068,0.56636 1.79048,0.56636 0.0598,0 0.14967,-0.54149 0.19973,-1.2033 0.05,-0.661809 0.28309,-1.756569 0.51787,-2.432789 0.23477,-0.67623 0.44575,-1.29969 0.46884,-1.38548 0.0231,-0.0858 -0.7488,-0.3091 -1.7153,-0.496251 l -1.75727,-0.340279 0.23113,-0.44113 0.23113,-0.44113 -1.52516,-0.82643 c -2.04096,-1.10593 -2.14013,-1.186851 -1.87941,-1.53365 0.18869,-0.25099 0.37358,-0.18593 2.01064,0.707579 0.99157,0.541201 1.82507,0.91733 1.85223,0.835841 0.0272,-0.0815 0.14089,-0.27329 0.25273,-0.42624 0.1803,-0.24657 0.33988,-0.12762 1.40797,1.04955 l 1.20464,1.32764 0.65243,-0.977041 c 0.83277,-1.247069 2.32469,-2.628149 3.73966,-3.461809 5.53712,-3.26231 12.79598,-1.31418 16.00071,4.29428 0.68747,1.203099 1.31417,3.13582 1.45152,4.476439 l 0.11365,1.10926 h 3.77072 3.77074 v 0.41234 0.41234 h -3.7592 -3.7592 l -0.26246,1.36071 c -0.35599,1.8456 -0.8386,3.04726 -1.80276,4.48881 -2.59218,3.87563 -7.36609,5.86889 -11.85795,4.95107 z m 2.10293,-2.52408 c 0.34994,-0.0497 0.3711,0.004 0.3711,0.95033 v 1.00303 l 0.70098,-0.0952 c 3.95624,-0.53751 6.97632,-2.58668 8.61864,-5.84787 0.87974,-1.74694 1.13844,-2.83172 1.1403,-4.78157 0.002,-1.940779 -0.21749,-2.800249 -1.19605,-4.686479 -0.70812,-1.36495 -2.33709,-3.07434 -3.74013,-3.924791 -1.21391,-0.735799 -3.11455,-1.388189 -4.49289,-1.542159 l -1.03085,-0.11515 v 0.68104 c 0,0.61649 -0.0391,0.681049 -0.41234,0.681049 -0.373,0 -0.41233,-0.0647 -0.41233,-0.678469 v -0.67847 l -0.78345,0.10972 c -4.49727,0.62982 -8.03715,3.72188 -9.12345,7.96929 -0.58576,2.290309 -0.31197,4.588379 0.82028,6.885069 1.50538,3.05354 4.73432,5.409 7.96588,5.81099 l 1.03827,0.12915 0.0825,-0.90838 c 0.0714,-0.78654 0.13224,-0.91545 0.45357,-0.96109 z m -0.45357,-3.7408 c 0,-1.20952 0.009,-1.23701 0.41233,-1.23701 0.40318,0 0.41234,0.0275 0.41234,1.23701 0,1.20952 -0.009,1.23701 -0.41234,1.23701 -0.40317,0 -0.41233,-0.0275 -0.41233,-1.23701 z m -5.84874,-4.4754 c -0.88249,-1.96865 -1.40185,-2.936509 -1.60411,-2.989399 -0.69176,-0.1809 -0.21289,-0.36962 0.93791,-0.36962 0.71472,0 1.23701,0.0696 1.23701,0.16494 0,0.0907 -0.14844,0.16493 -0.32987,0.16493 -0.18143,0 -0.32987,0.0863 -0.32987,0.19172 0,0.15607 1.59616,3.907339 1.72672,4.058109 0.0967,0.11163 1.57209,-3.951289 1.48567,-4.091119 -0.0539,-0.0873 -0.20504,-0.15871 -0.33576,-0.15871 -0.13072,0 -0.23767,-0.0742 -0.23767,-0.16493 0,-0.0907 0.40822,-0.16494 0.90715,-0.16494 0.94887,0 1.08193,0.0832 0.64446,0.40312 -0.14448,0.10564 -0.76429,1.446109 -1.37735,2.978819 -0.61307,1.5327 -1.18321,2.80958 -1.26697,2.8375 -0.0838,0.0279 -0.73956,-1.25927 -1.45732,-2.86042 z m 8.24029,2.24878 c 0.0561,-0.0907 0.19977,-0.16494 0.31935,-0.16494 0.23618,0 1.64231,-4.709599 1.48306,-4.967259 -0.0495,-0.0802 -0.19701,-0.14573 -0.32772,-0.14573 -0.13072,0 -0.23767,-0.0742 -0.23767,-0.16493 0,-0.25372 2.56282,-0.20118 3.20139,0.0656 0.65628,0.27421 0.77466,0.43759 0.79335,1.094879 0.0166,0.58512 -0.55043,1.26388 -1.20373,1.44082 l -0.44339,0.12009 0.46726,1.21278 c 0.257,0.66702 0.60088,1.31409 0.76418,1.43793 0.26613,0.20182 0.22521,0.2257 -0.39468,0.23041 l -0.69159,0.005 -0.53489,-1.40813 c -0.72773,-1.91583 -1.01937,-1.8123 -1.53729,0.54577 -0.0918,0.41783 -0.063,0.53249 0.13382,0.53249 0.13793,0 0.29665,0.0742 0.35271,0.16494 0.0643,0.10405 -0.3314,0.16493 -1.07208,0.16493 -0.74067,0 -1.13639,-0.0609 -1.07208,-0.16493 z m 3.83928,-3.39052 c 0.25,-0.17511 0.36577,-0.42425 0.36404,-0.78345 -0.003,-0.679279 -0.14509,-0.886989 -0.70095,-1.026509 -0.40206,-0.10091 -0.47829,-0.0516 -0.68053,0.4405 -0.12527,0.304769 -0.27922,0.795349 -0.34212,1.090169 -0.11116,0.52102 -0.0988,0.53604 0.43931,0.53604 0.30452,0 0.71864,-0.11554 0.92025,-0.25675 z m -6.23083,0.50415 c 0,-1.20952 0.009,-1.23701 0.41233,-1.23701 0.40318,0 0.41234,0.0275 0.41234,1.23701 0,1.20953 -0.009,1.23702 -0.41234,1.23702 -0.40317,0 -0.41233,-0.0275 -0.41233,-1.23702 z m 0,-5.112979 c 0,-1.20953 0.009,-1.23702 0.41233,-1.23702 0.40318,0 0.41234,0.0275 0.41234,1.23702 0,1.20952 -0.009,1.23701 -0.41234,1.23701 -0.40317,0 -0.41233,-0.0275 -0.41233,-1.23701 z"
         style="fill:#aaaaaa;stroke-width:0.16493508" />
    </g>
  </g>
</svg>
